<svg width="295" height="295" viewBox="0 0 295 295" fill="none" xmlns="http://www.w3.org/2000/svg">
<g filter="url(#filter0_d_206_156)">
<rect x="4" width="287" height="287" rx="15" fill="#9CC3FC"/>
<mask id="path-2-outside-1_206_156" maskUnits="userSpaceOnUse" x="63" y="54" width="169" height="207" fill="black">
<rect fill="white" x="63" y="54" width="169" height="207"/>
<path d="M70.1928 62.325H81.1928L148.018 180.575L214.568 62.325H224.743V253.725H70.1928V62.325ZM80.3678 243.825H214.568V82.95L152.693 191.85H143.068L80.3678 81.3V243.825Z"/>
</mask>
<path d="M70.1928 62.325H81.1928L148.018 180.575L214.568 62.325H224.743V253.725H70.1928V62.325ZM80.3678 243.825H214.568V82.95L152.693 191.85H143.068L80.3678 81.3V243.825Z" fill="white"/>
<path d="M70.1928 62.325V55.325H63.1928V62.325H70.1928ZM81.1928 62.325L87.287 58.8811L85.2774 55.325H81.1928V62.325ZM148.018 180.575L141.924 184.019L148.03 194.825L154.118 184.008L148.018 180.575ZM214.568 62.325V55.325H210.475L208.468 58.8918L214.568 62.325ZM224.743 62.325H231.743V55.325H224.743V62.325ZM224.743 253.725V260.725H231.743V253.725H224.743ZM70.1928 253.725H63.1928V260.725H70.1928V253.725ZM80.3678 243.825H73.3678V250.825H80.3678V243.825ZM214.568 243.825V250.825H221.568V243.825H214.568ZM214.568 82.95H221.568V56.4602L208.482 79.4919L214.568 82.95ZM152.693 191.85V198.85H156.767L158.779 195.308L152.693 191.85ZM143.068 191.85L136.979 195.303L138.99 198.85H143.068V191.85ZM80.3678 81.3L86.4566 77.8466L73.3678 54.7689V81.3H80.3678ZM70.1928 69.325H81.1928V55.325H70.1928V69.325ZM75.0986 65.7689L141.924 184.019L154.112 177.131L87.287 58.8811L75.0986 65.7689ZM154.118 184.008L220.668 65.7582L208.468 58.8918L141.918 177.142L154.118 184.008ZM214.568 69.325H224.743V55.325H214.568V69.325ZM217.743 62.325V253.725H231.743V62.325H217.743ZM224.743 246.725H70.1928V260.725H224.743V246.725ZM77.1928 253.725V62.325H63.1928V253.725H77.1928ZM80.3678 250.825H214.568V236.825H80.3678V250.825ZM221.568 243.825V82.95H207.568V243.825H221.568ZM208.482 79.4919L146.607 188.392L158.779 195.308L220.654 86.4081L208.482 79.4919ZM152.693 184.85H143.068V198.85H152.693V184.85ZM149.157 188.397L86.4566 77.8466L74.2789 84.7534L136.979 195.303L149.157 188.397ZM73.3678 81.3V243.825H87.3678V81.3H73.3678Z" fill="white" mask="url(#path-2-outside-1_206_156)"/>
</g>
<defs>
<filter id="filter0_d_206_156" x="0" y="0" width="295" height="295" filterUnits="userSpaceOnUse" color-interpolation-filters="sRGB">
<feFlood flood-opacity="0" result="BackgroundImageFix"/>
<feColorMatrix in="SourceAlpha" type="matrix" values="0 0 0 0 0 0 0 0 0 0 0 0 0 0 0 0 0 0 127 0" result="hardAlpha"/>
<feOffset dy="4"/>
<feGaussianBlur stdDeviation="2"/>
<feComposite in2="hardAlpha" operator="out"/>
<feColorMatrix type="matrix" values="0 0 0 0 0 0 0 0 0 0 0 0 0 0 0 0 0 0 0.25 0"/>
<feBlend mode="normal" in2="BackgroundImageFix" result="effect1_dropShadow_206_156"/>
<feBlend mode="normal" in="SourceGraphic" in2="effect1_dropShadow_206_156" result="shape"/>
</filter>
</defs>
</svg>
