<svg width="634" height="146" viewBox="0 0 634 146" fill="none" xmlns="http://www.w3.org/2000/svg">
<path d="M0.8 3.59999H8.8L57.4 89.6L105.8 3.59999H113.2V142.8H0.8V3.59999ZM8.2 135.6H105.8V18.6L60.8 97.8H53.8L8.2 17.4V135.6ZM252.647 143H121.447L187.047 0.799995L252.647 143ZM133.047 135.6H241.047L187.047 18.4L133.047 135.6ZM269.094 3.79999H367.094V11.2H276.494V67.6H355.294V75H276.494V135.6H367.094V143H269.094V3.79999ZM392.741 143V3.79999H400.541L497.741 98.2V3.79999H505.141V143H497.741V108.6L400.141 13.4V143H392.741ZM576.188 8.2C567.254 8.2 558.921 10.4667 551.188 15C543.588 19.4 537.521 25.4667 532.988 33.2C528.454 40.8 526.188 49.1333 526.188 58.2V84.6C526.188 94.0667 527.521 101.867 530.188 108C533.921 116.667 539.588 123.733 547.188 129.2C554.788 134.667 563.321 137.733 572.788 138.4V73.4H633.788V86.6C633.788 95.1333 632.521 102.733 629.988 109.4C625.854 120.467 618.921 129.333 609.188 136C599.454 142.667 588.454 146 576.188 146C564.588 146 553.988 142.867 544.388 136.6C534.921 130.2 527.988 121.733 523.588 111.2C520.388 103.733 518.788 94.8667 518.788 84.6V58.2C518.788 47.8 521.321 38.2 526.388 29.4C531.588 20.6 538.588 13.6667 547.388 8.59999C556.188 3.39999 565.788 0.799995 576.188 0.799995C584.854 0.799995 592.788 2.26666 599.988 5.2C607.188 7.99999 613.321 12.1333 618.388 17.6C622.521 22.1333 625.854 27.2 628.388 32.8C631.054 38.4 632.388 44.0667 632.388 49.8H625.188C625.054 44.8667 623.788 40 621.388 35.2C619.121 30.4 616.188 26.0667 612.588 22.2C603.654 12.8667 591.521 8.2 576.188 8.2ZM626.388 80.6H579.988V138.4C589.588 137.733 598.188 134.733 605.788 129.4C613.521 123.933 619.188 116.733 622.788 107.8C625.188 101.533 626.388 94.4667 626.388 86.6V80.6Z" fill="black"/>
</svg>
